<?xml version="1.0" encoding="UTF-8" standalone="no"?>
<svg
   xmlns:dc="http://purl.org/dc/elements/1.1/"
   xmlns:cc="http://creativecommons.org/ns#"
   xmlns:rdf="http://www.w3.org/1999/02/22-rdf-syntax-ns#"
   xmlns:svg="http://www.w3.org/2000/svg"
   xmlns="http://www.w3.org/2000/svg"
   xmlns:sodipodi="http://sodipodi.sourceforge.net/DTD/sodipodi-0.dtd"
   xmlns:inkscape="http://www.inkscape.org/namespaces/inkscape"
   width="360pt"
   version="1.1"
   height="363.444pt"
   viewBox="0 0 360 363.444"
   id="svg3020"
   inkscape:version="0.48.4 r9939"
   sodipodi:docname="Logo Radio - LiteFM-page001.svg">
  <metadata
     id="metadata3053">
    <rdf:RDF>
      <cc:Work
         rdf:about="">
        <dc:format>image/svg+xml</dc:format>
        <dc:type
           rdf:resource="http://purl.org/dc/dcmitype/StillImage" />
        <dc:title>LiteFM Logo</dc:title>
      </cc:Work>
    </rdf:RDF>
  </metadata>
  <sodipodi:namedview
     pagecolor="#ffffff"
     bordercolor="#666666"
     borderopacity="1"
     objecttolerance="10"
     gridtolerance="10"
     guidetolerance="10"
     inkscape:pageopacity="0"
     inkscape:pageshadow="2"
     inkscape:window-width="640"
     inkscape:window-height="480"
     id="namedview3051"
     showgrid="false"
     inkscape:zoom="0.51947481"
     inkscape:cx="225"
     inkscape:cy="227.1525"
     inkscape:window-x="0"
     inkscape:window-y="0"
     inkscape:window-maximized="0"
     inkscape:current-layer="svg3020" />
  <title
     id="title3022">LiteFM Logo</title>
  <defs
     id="defs3024">
    <clipPath
       id="Clip0">
      <path
         d="M0 0 L360 0 L360 363.444 L0 363.444 L0 0 Z"
         transform="translate(0, 0)"
         id="path3027" />
    </clipPath>
  </defs>
  <g
     id="1">
    <g
       id="Group1"
       clip-path="url(#Clip0)">
      <path
         style="fill:#e52d0e; fill-rule:nonzero;stroke:none;"
         d="M70.7446 137.946 C29.7773 107.505 3.2251 58.7344 3.2251 3.7617 C3.2251 2.5029 3.2471 1.2544 3.2734 0 C1.1338 10.6772 0 21.7251 0 33.0342 C0 125.319 74.8086 200.127 167.093 200.127 C191.312 200.127 214.323 194.968 235.103 185.693 C221.617 189.2 207.489 191.071 192.923 191.071 C144.688 191.071 101.242 170.631 70.7446 137.946 Z"
         transform="translate(0, 163.317)"
         id="path3031" />
      <path
         style="fill:#c8d100; fill-rule:nonzero;stroke:none;"
         d="M124.897 134.185 C124.897 79.2099 98.3575 30.4472 57.3887 0 C85.2432 29.8442 102.295 69.9048 102.295 113.953 C102.295 125.271 101.16 136.313 99.0215 146.992 C97.5567 213.441 57.3028 270.323 0 295.885 C71.8516 277.2 124.897 211.894 124.897 134.185 Z"
         transform="translate(235.103, 53.1255)"
         id="path3033" />
      <path
         style="fill:#b0270b; fill-rule:nonzero;stroke:none;"
         d="M263.379 0 C248.047 76.4595 180.539 134.045 99.5655 134.045 C62.2554 134.045 27.8052 121.821 0 101.146 C30.4976 133.831 73.9429 154.271 122.178 154.271 C136.745 154.271 150.873 152.4 164.358 148.893 C221.661 123.332 261.915 66.4497 263.379 0 Z"
         transform="translate(70.7446, 200.117)"
         id="path3035" />
      <path
         style="fill:#00bbea; fill-rule:nonzero;stroke:none;"
         d="M121.673 34.6343 C142.439 25.3706 165.435 20.2178 189.649 20.2178 C226.96 20.2178 261.413 32.4487 289.218 53.1255 C258.725 20.4424 215.276 0 167.037 0 C76.0196 0 2.0049 72.7661 0 163.317 C12.5762 100.611 60.2549 50.5962 121.673 34.6343 Z"
         transform="translate(3.2734, 0)"
         id="path3037" />
      <path
         style="fill:#6d9ba4; fill-rule:nonzero;stroke:none;"
         d="M67.5195 266.629 C39.6645 236.784 22.6099 196.718 22.6099 152.676 C22.6099 84.5986 63.3227 26.0361 121.721 0 C60.3032 15.9619 12.6245 65.977 0.0483 128.683 C0.022 129.937 0 131.185 0 132.444 C0 187.417 26.5522 236.188 67.5195 266.629 Z"
         transform="translate(3.2251, 34.6343)"
         id="path3039" />
      <path
         style="fill:#93be02; fill-rule:nonzero;stroke:none;"
         d="M0 14.4165 C13.4614 10.916 27.5791 9.0444 42.1465 9.0444 C134.422 9.0444 209.226 83.8618 209.226 176.133 C209.226 177.395 209.205 178.649 209.178 179.899 C211.316 169.22 212.451 158.178 212.451 146.861 C212.451 102.812 195.399 62.7519 167.545 32.9077 C139.74 12.2309 105.287 0 67.9765 0 C43.7617 0 20.7656 5.1528 0 14.4165 Z"
         transform="translate(124.946, 20.2178)"
         id="path3041" />
      <path
         style="fill:#ffffff; fill-rule:nonzero;stroke:none;"
         d="M141.258 0 C126.69 0 112.573 1.8716 99.1113 5.3721 C40.7128 31.4082 0 89.9707 0 158.048 C0 202.09 17.0546 242.156 44.9096 272.001 C72.7148 292.676 107.165 304.9 144.475 304.9 C225.448 304.9 292.957 247.315 308.289 170.855 C308.316 169.605 308.338 168.35 308.338 167.089 C308.338 74.8174 233.533 0 141.258 0 Z"
         transform="translate(25.835, 29.2622)"
         id="path3043" />
      <path
         style="fill:#3b3779; fill-rule:nonzero;stroke:none;"
         d="M15.0342 9.2983 L0 9.2983 L0 85.7056 L40.5039 85.7056 L40.5039 70.6724 L15.0342 70.6724 L15.0342 9.2983 Z M51.709 85.7056 L66.4785 85.7056 L66.4785 27.1255 L51.709 27.1255 L51.709 85.7056 Z M59.0957 0 C54.2578 0 50.3159 3.9473 50.3159 8.7891 C50.3159 13.6284 54.2578 17.5728 59.0957 17.5728 C63.9346 17.5728 67.8823 13.6284 67.8823 8.7891 C67.8823 3.9473 63.9346 0 59.0957 0 Z M104.053 9.2983 L89.5322 9.2983 L89.5322 27.1255 L78.709 27.1255 L78.709 41.6436 L89.5322 41.6436 L89.5322 61.2554 C89.5322 72.5933 93.0957 80.3608 101.504 87.8687 L113.73 80.6099 C107.109 75.5195 104.053 69.6587 104.053 61.2554 L104.053 41.6436 L115.512 41.6436 L115.512 27.1255 L104.053 27.1255 L104.053 9.2983 Z M148.112 73.6069 C140.087 73.6069 137.798 66.0942 137.285 64.4409 L139.451 64.4409 C154.733 64.4409 165.814 57.1777 172.43 43.4277 C168.87 32.2183 160.843 25.2095 148.112 25.2095 C132.191 25.2095 121.623 40.2422 121.623 56.4106 C121.623 72.5933 131.935 87.6138 148.112 87.6138 C161.484 87.6138 169.256 76.7847 169.256 76.7847 L161.101 68.6382 C161.101 68.6382 157.024 73.6069 148.112 73.6069 Z M148.112 39.4756 C154.216 39.4756 157.276 43.4277 157.276 43.4277 C152.946 49.9175 147.983 53.3628 136.523 53.3628 C136.523 53.3628 138.048 39.4756 148.112 39.4756 Z"
         transform="translate(54.2539, 132.254)"
         id="path3045" />
      <path
         style="fill:#616364; fill-rule:nonzero;stroke:none;"
         d="M0 58.602 L3.7402 58.602 L3.7402 30.5214 L19.2109 30.5214 L19.2109 27.2163 L3.7402 27.2163 L3.7402 3.31 L20.3486 3.31 L20.3486 0 L0 0 L0 58.602 Z M66.7734 0 L62.0732 0 L54.1631 30.2583 C52.081 38.4282 50.7773 43.3906 49.4609 50.1645 L49.206 50.1645 C47.8203 43.4716 46.3359 38.1689 44.1699 30.2583 L35.9883 0 L31.6465 0 L28.6103 58.602 L32.3418 58.602 L33.4775 31.1284 C33.9043 21.2192 34.2519 12.5229 34.0781 5.3061 L34.4267 5.3061 C35.7324 12.3505 37.5556 19.5644 39.9922 28.6958 L48.0771 58.602 L49.9834 58.602 L58.5097 27.1357 C60.7744 18.8686 62.3369 11.9995 63.7334 5.3061 L64.164 5.3061 C63.8994 12.1767 64.3398 21.395 64.7734 30.4321 L66.164 58.602 L69.9824 58.602 L66.7734 0 Z"
         transform="translate(236.097, 159.41)"
         id="path3047" />
      <path
         style="fill:#616364; fill-rule:nonzero;stroke:none;"
         d="M0 1.5303 L2.7276 1.5303 L2.7276 14.9488 L4.4385 14.9488 L4.4385 1.5303 L7.1651 1.5303 L7.1651 0 L0 0 L0 1.5303 Z M18.8311 0 L16.9249 0 L15.2393 6.8316 C15.0752 7.4971 14.9317 8.1148 14.7969 8.6836 C14.667 9.2486 14.5469 9.7994 14.4366 10.3316 C14.3282 10.8638 14.2247 11.4112 14.1299 11.9771 L14.0635 11.9771 C13.96 11.4112 13.8487 10.8609 13.7266 10.3203 C13.6084 9.7852 13.4766 9.2305 13.335 8.6607 C13.1905 8.0953 13.0342 7.4859 12.8643 6.8316 L11.1348 0 L9.2725 0 L8.3838 14.9488 L9.9151 14.9488 L10.2042 8.6275 C10.253 7.5562 10.2959 6.5137 10.3331 5.5035 C10.3731 4.4917 10.3877 3.5406 10.3799 2.6612 L10.4493 2.6612 C10.6026 3.5269 10.7842 4.4185 10.9952 5.334 C11.2012 6.2505 11.4346 7.1856 11.6895 8.1397 L13.419 14.8609 L14.5284 14.8609 L16.3477 7.8516 C16.5811 6.9829 16.7989 6.1065 16.9971 5.231 C17.1983 4.354 17.378 3.4976 17.5459 2.6612 L17.6329 2.6612 C17.6104 3.2271 17.6084 3.8374 17.6182 4.4917 C17.6299 5.1416 17.6514 5.8106 17.6856 6.4947 C17.7139 7.1783 17.753 7.855 17.7891 8.5176 L18.1006 14.9488 L19.6944 14.9488 L18.8311 0 Z"
         transform="translate(334.877, 65.9941)"
         id="path3049" />
    </g>
  </g>
</svg>
