<?xml version="1.0" encoding="UTF-8" standalone="no"?>
<svg
   xmlns:dc="http://purl.org/dc/elements/1.1/"
   xmlns:cc="http://creativecommons.org/ns#"
   xmlns:rdf="http://www.w3.org/1999/02/22-rdf-syntax-ns#"
   xmlns:svg="http://www.w3.org/2000/svg"
   xmlns="http://www.w3.org/2000/svg"
   xmlns:sodipodi="http://sodipodi.sourceforge.net/DTD/sodipodi-0.dtd"
   xmlns:inkscape="http://www.inkscape.org/namespaces/inkscape"
   width="524.774pt"
   version="1.1"
   height="298.88pt"
   viewBox="0 0 524.774 298.88"
   id="svg3169"
   inkscape:version="0.48.4 r9939"
   sodipodi:docname="tv1 NEW-page001.svg">
  <metadata
     id="metadata3205">
    <rdf:RDF>
      <cc:Work
         rdf:about="">
        <dc:format>image/svg+xml</dc:format>
        <dc:type
           rdf:resource="http://purl.org/dc/dcmitype/StillImage" />
        <dc:title>Hot FM Logo</dc:title>
      </cc:Work>
    </rdf:RDF>
  </metadata>
  <sodipodi:namedview
     pagecolor="#ffffff"
     bordercolor="#666666"
     borderopacity="1"
     objecttolerance="10"
     gridtolerance="10"
     guidetolerance="10"
     inkscape:pageopacity="0"
     inkscape:pageshadow="2"
     inkscape:window-width="1024"
     inkscape:window-height="538"
     id="namedview3203"
     showgrid="false"
     inkscape:zoom="0.87199446"
     inkscape:cx="298.5228"
     inkscape:cy="266.17634"
     inkscape:window-x="-8"
     inkscape:window-y="-8"
     inkscape:window-maximized="1"
     inkscape:current-layer="svg3169" />
  <title
     id="title3171">Hot FM Logo</title>
  <defs
     id="defs3173">
    <clipPath
       id="Clip0">
      <path
         d="M0 0 L524.774 0 L524.774 298.88 L0 298.88 L0 0 Z"
         transform="translate(0, 0)"
         id="path3176" />
    </clipPath>
    <linearGradient
       id="Grad0"
       y1="133.484"
       x1="427.666"
       y2="101.169"
       gradientUnits="userSpaceOnUse"
       x2="60.092">
      <stop
         offset="0%"
         stop-color="#008bcf"
         stop-opacity="1"
         id="stop3179" />
      <stop
         offset="100%"
         stop-color="#092781"
         stop-opacity="1"
         id="stop3181" />
    </linearGradient>
    <linearGradient
       id="Grad1"
       y1="225.199"
       x1="-1.00506"
       y2="8.40711"
       gradientUnits="userSpaceOnUse"
       x2="6.35507">
      <stop
         offset="0%"
         stop-color="#e20010"
         stop-opacity="1"
         id="stop3184" />
      <stop
         offset="100%"
         stop-color="#1f0000"
         stop-opacity="1"
         id="stop3186" />
    </linearGradient>
    <linearGradient
       id="Grad2"
       y1="-2"
       x1="0"
       y2="0"
       gradientUnits="userSpaceOnUse"
       x2="82.9336">
      <stop
         offset="0%"
         stop-color="#e20010"
         stop-opacity="1"
         id="stop3189" />
      <stop
         offset="100%"
         stop-color="#1f0000"
         stop-opacity="1"
         id="stop3191" />
    </linearGradient>
    <clipPath
       id="Clip0-1">
      <path
         inkscape:connector-curvature="0"
         d="m 0,0 384.856,0 0,225.031 L 0,225.031 0,0 z"
         transform="translate(105.425,360.209)"
         id="path3049" />
    </clipPath>
    <clipPath
       id="Clip1">
      <path
         inkscape:connector-curvature="0"
         d="m 0,0 114.757,0 0,88.667 L 0,88.667 0,0 z"
         transform="translate(105.425,443.873)"
         id="path3052" />
    </clipPath>
    <clipPath
       id="Clip2">
      <path
         inkscape:connector-curvature="0"
         d="m 0,0 384.856,0 0,225.032 L 0,225.032 0,0 z"
         transform="translate(105.425,0)"
         id="path3055" />
    </clipPath>
    <clipPath
       id="Clip3">
      <path
         inkscape:connector-curvature="0"
         d="m 0,0 384.856,0 0,171.491 L 0,171.491 0,0 z"
         transform="translate(105.425,28.457)"
         id="path3058" />
    </clipPath>
    <clipPath
       id="Clip4">
      <path
         inkscape:connector-curvature="0"
         d="m 0,0 114.757,0 0,88.6665 L 0,88.6665 0,0 z"
         transform="translate(105.425,83.665)"
         id="path3061" />
    </clipPath>
  </defs>
  <g
     clip-path="url(#Clip0-1)"
     id="Group2"
     transform="matrix(1.4561687,0,0,1.3261537,-153.24074,0.12433334)">
    <g
       clip-path="url(#Clip1)"
       id="Group1" />
  </g>
  <g
     clip-path="url(#Clip2)"
     id="Group5"
     transform="matrix(1.4561687,0,0,1.3261537,-153.24074,0.12433334)">
    <g
       clip-path="url(#Clip3)"
       id="Group4">
      <path
         id="path3082"
         transform="translate(139.583,28.457)"
         d="m 85.1694,83.2764 c 0,0 12.8316,0.2651 25.1286,12.563 0,0 2.403,0.8047 3.474,3.7451 0,0 1.871,0.2617 1.871,2.1345 0,0 11.227,4.277 12.831,5.612 0,0 1.603,0.269 1.069,1.874 l -1.603,4.013 c 0,0 -0.001,1.873 2.139,2.403 0,0 2.408,2.142 2.139,4.545 0,0 4.543,4.545 1.602,9.625 0,0 0,3.74 -10.959,6.679 0,0 -7.216,0.536 -11.494,8.56 0,0 -8.019,15.229 -2.673,26.461 0,0 28.602,-3.479 42.235,-27.269 12.832,-25.392 -6.95,-47.0467 -6.95,-47.0467 C 118.85,72.3189 85.1694,83.2764 85.1694,83.2764 z M 314.445,59.0118 c 0,0 -34.846,-57.3238 -147.251,-55.919 0,0 -121.109,-1.1255 -146.9616,74.1836 0,0 -20.2324,50.5836 31.7905,84.8556 0,0 5.3467,-4.813 6.9512,-6.149 0,0 4.8125,-4.813 2.4063,-10.691 0,0 -1.8711,-2.143 -6.4156,-3.209 0,0 -21.4643,-10.89 -17.1865,-34.418 0,0 -1.626,-16.4936 22.5313,-22.5199 0,0 -7.2173,-4.0064 -1.3355,-17.9043 0,0 9.5879,-42.5152 84.6179,-53.753 0,0 80.647,-13.4878 140.226,34.2867 0,0 60.695,45.8071 5.059,103.6935 0,0 61.822,-37.102 25.568,-92.4562 z"
         style="fill:#161413;fill-rule:nonzero;stroke:none"
         inkscape:connector-curvature="0" />
      <g
         clip-path="url(#Clip4)"
         id="Group3">
        <path
           id="path3085"
           transform="translate(105.425,83.9702)"
           d="m 91.623,41.7188 c -8.0869,0 -15.31,4.1425 -19.6001,10.5888 -0.2763,-10.0439 8.1289,-16.0615 8.1289,-16.0615 -2.7881,-1.5459 -2.873,-6.0469 -2.873,-6.0469 C 75.2641,16.7256 62.2573,14.8672 62.2573,14.8672 43.9829,7.2808 41.3501,0 41.3501,0 c 4.3354,18.896 15.4858,25.8653 15.4858,25.8653 3.8716,2.1704 5.7315,4.0283 5.7315,4.0283 C 58.8506,35.0049 49.8667,23.6948 49.8667,23.6948 38.0957,12.2359 25.2426,11.1504 25.2426,11.1504 35.9287,13.7857 44.9121,23.0777 44.9121,23.0777 37.4785,19.5132 30.9741,19.208 30.9741,19.208 29.1162,19.0523 21.6821,17.8145 21.6821,17.8145 11.6167,16.5733 0,7.898 0,7.898 6.8149,15.7959 18.1196,19.3609 18.1196,19.3609 43.3623,26.7945 43.208,36.8594 43.208,36.8594 33.143,41.0381 21.9907,28.6529 21.9907,28.6529 c 1.7041,3.7172 4.1816,9.604 4.1816,9.604 8.0523,13.9384 22.3008,9.7568 22.3008,9.7568 12.5444,0.6162 16.5713,5.5752 16.5713,5.5752 -6.813,-0.1524 -12.3896,3.2519 -12.3896,3.2519 -5.5757,3.7168 -10.376,2.0118 -10.376,2.0118 -2.6314,-0.1602 -7.8985,-6.0401 -7.8985,-6.0401 -4.646,-6.5049 -13.1645,-6.9697 -13.1645,-6.9697 8.0527,3.7168 9.292,9.7568 9.292,9.7568 6.3486,15.7969 23.0762,13.7852 23.0762,13.7852 12.8544,0.9297 17.0957,6.3379 17.0957,6.3379 4.0219,7.5136 12.0742,12.6386 20.9433,12.6386 12.648,0 23.134,-10.2792 23.134,-23.1572 0,-12.8789 -10.486,-23.4853 -23.134,-23.4853 z M 64.2695,42.126 c 0,0 -4.8018,-3.4043 -7.4336,-7.8975 0,0 3.252,1.7022 5.5752,1.5459 0,0 7.2817,0.7764 9.9131,4.959 0,0 0.4629,1.0879 1.2373,1.3926 0,0 -4.9561,2.6357 -9.292,0 z m 29.3501,40.2686 c -9.9658,0 -18.0435,-8.254 -18.0435,-18.4327 0,-10.1777 8.0777,-18.4316 18.0435,-18.4316 9.9634,0 18.0414,8.2539 18.0414,18.4316 0,10.1787 -8.078,18.4327 -18.0414,18.4327 z"
           style="fill:#e20010;fill-rule:nonzero;stroke:none"
           inkscape:connector-curvature="0" />
        <path
           id="path3087"
           transform="translate(132.062,83.665)"
           d="m 0,0 c 0,0 8.6753,2.7876 9.4482,6.1924 0,0 1.2373,3.7168 4.0254,3.8692 0,0 -0.4629,0.7773 -4.4902,-1.2339 0,0 -3.4063,-0.4683 -5.1109,-4.3413 C 3.8725,4.4864 3.8711,1.7022 0,0 z"
           style="fill:#e20010;fill-rule:nonzero;stroke:none"
           inkscape:connector-curvature="0" />
      </g>
    </g>
    <path
       id="path3089"
       transform="translate(206.459,0)"
       d="M 75.8252,47.4658 C 71.5273,64.3809 67.2314,81.6831 62.9341,99.3784 53.4565,100.053 43.9795,100.736 34.5009,101.411 39.0088,81.9556 43.5166,62.9356 48.0249,44.3369 46.0014,44.29 43.9795,44.2427 41.9575,44.1919 37.4497,62.9795 32.9414,82.1987 28.4355,101.846 18.956,102.525 9.477,103.204 0,103.879 4.2143,84.4893 8.4262,65.4766 12.6386,46.8413 c 0.25,-1.081 0.3794,-2.3227 0.3794,-3.7168 0,-3.5639 -0.6333,-6.8818 -1.895,-9.9668 -1.185,-2.8896 -2.7783,-4.4428 -4.7744,-4.6313 3.4883,0.1665 6.9741,0.3301 10.4605,0.4931 C 19.0835,19.2378 21.3589,9.5645 23.6328,0 c 9.4355,0.897 18.8711,1.7969 28.3086,2.6934 -2.2324,9.1142 -4.4644,18.3408 -6.6973,27.6694 6.5703,0.312 13.1402,0.624 19.7114,0.9365 3.5371,0.167 6.3174,1.3609 8.3394,3.5498 2.02,2.1924 3.0342,4.9654 3.0342,8.3482 0,1.3393 -0.1704,2.7588 -0.5039,4.2685 l 0,0 z M 6.3486,28.5264 C 6.2138,28.519 6.0781,28.5112 5.9419,28.5078 c 0.1382,0 0.2719,0.0034 0.4067,0.0186 l 0,0 z M 147.533,48.7656 c -2.99,10.2139 -5.981,20.6128 -8.971,31.2007 -1.098,4.0073 -3.478,7.4556 -7.144,10.3809 -3.664,2.9223 -7.561,4.5737 -11.684,4.8716 -11.077,0.791 -22.1603,1.5825 -33.2379,2.3735 -3.5386,0.2505 -6.3194,-0.6025 -8.3409,-2.6065 -2.0219,-1.996 -3.0312,-4.7114 -3.0312,-8.1084 0,-1.3359 0.167,-2.7729 0.5044,-4.3125 2.9058,-11.6801 5.8115,-23.1826 8.7187,-34.5039 0.251,-0.958 0.3799,-2.0581 0.3799,-3.288 0,-3.1582 -0.6338,-6.0909 -1.895,-8.835 -1.1851,-2.5625 -2.7788,-3.9492 -4.7749,-4.1235 19.4092,0.9218 38.8189,1.8437 58.2279,2.7622 3.535,0.1709 6.381,1.2158 8.53,3.1035 2.145,1.895 3.223,4.2978 3.223,7.2485 0,1.2451 -0.17,2.523 -0.505,3.8369 l 0,0 z m -33.867,-2.9619 c -3.414,12.4356 -6.826,25.1138 -10.237,38.0391 2.022,-0.0982 4.042,-0.1958 6.065,-0.2901 3.412,-12.7802 6.829,-25.3134 10.24,-37.604 -2.025,-0.0507 -4.048,-0.1015 -6.068,-0.145 l 0,0 z M 78.0571,31.8145 c -0.1348,-0.0074 -0.2725,-0.0142 -0.4067,-0.022 0.1381,0.0039 0.2739,0.0078 0.4067,0.022 l 0,0 z m 116.8369,5.6264 c -1.096,3.4116 -2.192,6.8457 -3.284,10.3081 -2.026,-0.0473 -4.048,-0.0942 -6.07,-0.145 -3.413,10.7149 -6.824,21.6763 -10.236,32.8853 2.023,-0.1021 4.043,-0.1958 6.066,-0.294 0.548,-1.8115 1.093,-3.6152 1.639,-5.4121 9.522,-0.3452 19.043,-0.6899 28.563,-1.0381 -0.376,1.0889 -0.754,2.1778 -1.137,3.2739 -1.095,3.4117 -3.476,6.3521 -7.139,8.8785 -3.666,2.5258 -7.563,3.9746 -11.686,4.2685 -11.083,0.7949 -22.16,1.5899 -33.238,2.3809 -3.54,0.2539 -6.32,-0.4644 -8.342,-2.1919 -2.021,-1.7207 -3.03,-4.0801 -3.03,-7.042 0,-1.1685 0.166,-2.4243 0.504,-3.7603 2.908,-10.207 5.812,-20.2251 8.718,-30.0688 0.251,-0.835 0.382,-1.7896 0.382,-2.8604 0,-2.7436 -0.635,-5.2993 -1.898,-7.6914 -1.184,-2.2387 -2.778,-3.4511 -4.773,-3.6186 3.487,0.1675 6.972,0.3305 10.461,0.4941 2.275,-7.4922 4.548,-14.8745 6.823,-22.1489 9.434,0.8999 18.871,1.7969 28.308,2.6934 -2.232,6.8271 -4.464,13.7602 -6.696,20.7983 2.022,0.0981 4.043,0.1958 6.065,0.2905 l 0,0 z m -44.961,-2.1274 c -0.138,-0.0069 -0.272,-0.0142 -0.407,-0.0181 0.139,0.0039 0.272,0.0073 0.407,0.0181 l 0,0 z"
       style="fill:#e20010;fill-rule:nonzero;stroke:none"
       inkscape:connector-curvature="0" />
    <path
       id="path3091"
       transform="translate(292.603,94.8774)"
       d="m 78.8335,12.668 c -0.2979,1.208 -0.5947,2.4131 -0.8926,3.6148 -8.3633,0.6386 -16.7265,1.2773 -25.0898,1.9174 0.4844,-1.7939 0.9697,-3.6015 1.4521,-5.4091 -1.7861,0.1635 -3.5674,0.3266 -5.3535,0.4897 -1.0019,3.5034 -2.0078,6.9732 -3.0078,10.4136 1.7812,-0.1094 3.5674,-0.2207 5.3496,-0.3291 -0.9668,3.5596 -1.9307,7.0918 -2.9014,10.5947 -1.7812,0.0576 -3.5673,0.1123 -5.3496,0.167 C 37.0552,54.8194 31.0737,74.4014 25.0884,92.8809 16.7251,91.5918 8.3618,90.3028 0,89.0147 7.731,67.1104 15.4624,43.3565 23.1929,17.7564 c 0.2226,-0.7261 0.334,-1.5679 0.334,-2.5337 0,-2.3154 -0.5215,-4.3227 -1.5596,-5.9961 C 20.6997,7.2593 19.1401,6.439 17.2847,6.7291 34.5288,4.6133 51.7739,2.4976 69.022,0.3848 72.1431,0 74.6509,0.5513 76.5464,2.0762 c 1.8984,1.5205 2.8467,3.7896 2.8467,6.7656 0,1.2232 -0.1905,2.5049 -0.5596,3.8262 l 0,0 z m 65.1175,20.6817 c -3.79,17.1357 -7.584,33.8252 -11.372,50.0683 -8.364,-0.7734 -16.727,-1.5459 -25.09,-2.3193 3.974,-15.9522 7.953,-32.3946 11.931,-49.3272 -1.786,0.0537 -3.568,0.1123 -5.353,0.166 -3.975,16.712 -7.953,32.9327 -11.931,48.667 -8.4353,-0.7802 -16.8738,-1.5595 -25.3103,-2.3408 3.9746,-14.6924 7.9531,-29.875 11.9307,-45.5459 -1.8213,0.0557 -3.6426,0.1123 -5.462,0.167 -3.9785,15.4483 -7.957,30.4072 -11.9345,44.874 -8.3223,-0.7685 -16.6494,-1.538 -24.9756,-2.3086 3.7168,-12.7255 7.4326,-25.8789 11.1494,-39.4687 0.2256,-0.7949 0.335,-1.6953 0.335,-2.7012 0,-2.5762 -0.5557,-4.9433 -1.6709,-7.0595 -1.045,-1.9844 -2.4483,-2.9434 -4.2129,-2.8995 27.3486,-1.6884 54.6951,-3.373 82.0431,-5.0566 3.121,-0.1963 5.633,0.665 7.527,2.6064 1.896,1.9414 2.842,4.6309 2.842,8.0352 0,1.4346 -0.148,2.915 -0.446,4.4434 l 0,0 z M 51.9849,23.3213 c -0.1201,0.0069 -0.2403,0.0186 -0.3604,0.0215 0.124,-0.0107 0.2442,-0.0185 0.3604,-0.0215 l 0,0 z"
       style="fill:#f59b00;fill-rule:nonzero;stroke:none"
       inkscape:connector-curvature="0" />
  </g>
  <text
     xml:space="preserve"
     style="font-size:36px;font-style:normal;font-variant:normal;font-weight:normal;font-stretch:normal;line-height:125%;letter-spacing:0px;word-spacing:0px;fill:#000000;fill-opacity:1;stroke:none;font-family:Adobe Gothic Std B;-inkscape-font-specification:Sans"
     x="493.12241"
     y="357.54486"
     id="text3267"
     sodipodi:linespacing="125%"
     transform="matrix(0.80000004,0,0,0.80000004,0,-9.6719002e-6)"><tspan
       sodipodi:role="line"
       id="tspan3269"></tspan></text>
</svg>
